<svg width="350" height="61.96" viewBox="0 0 370 53.439" class="css-1j8o68f" xmlns="http://www.w3.org/2000/svg"><defs><clipPath clipPathUnits="userSpaceOnUse" id="a"><path style="fill:none;fill-opacity:1;stroke:#000;stroke-width:.737571;stroke-dasharray:none;stroke-opacity:1" d="M-1.098 2.236h71.51v19.86h-71.51z"/></clipPath><clipPath clipPathUnits="userSpaceOnUse" id="c"><path style="fill:none;fill-opacity:1;stroke:#000;stroke-width:.420762;stroke-dasharray:none;stroke-opacity:1" d="M107.118 3.871h26.828v17.63h-26.828z"/></clipPath><clipPath clipPathUnits="userSpaceOnUse" id="b"><path style="fill:none;fill-opacity:1;stroke:#000;stroke-width:.503763;stroke-dasharray:none;stroke-opacity:1" d="M70.509 3.488h33.254v17.83H70.509z"/></clipPath></defs><g fill="#ca8a04"><path d="m4.943 16.065 15.514-8.96a3.65 3.65 0 0 0 1.385.272 3.696 3.696 0 0 0 3.689-3.688A3.696 3.696 0 0 0 21.842 0a3.692 3.692 0 0 0-3.689 3.672L2.128 12.927A4.282 4.282 0 0 0 0 16.621v19.703c0 1.515.817 2.934 2.134 3.694l18.045 10.419c.25.142.534.221.817.221.284 0 .568-.074.818-.221.51-.295.817-.829.817-1.419v-.527c0-.863-.466-1.663-1.209-2.094L4.942 36.88a1.659 1.659 0 0 1-.822-1.424V17.49c0-.585.318-1.135.823-1.425zM19.629 2.826a2.375 2.375 0 0 1 2.582-1.487c.147.023.29.057.42.108a2.38 2.38 0 1 1-3.002 1.379zM47.9 14.056 29.843 3.632a1.648 1.648 0 0 0-.828-.221c-.29 0-.573.079-.829.22-.516.302-.828.835-.828 1.437V5.8c0 .715.386 1.379 1.004 1.736l16.724 9.653c.488.278.788.8.788 1.362v18.045c0 .562-.3 1.084-.788 1.362L29.968 46.47a3.655 3.655 0 0 0-1.68-.408A3.696 3.696 0 0 0 24.6 49.75a3.696 3.696 0 0 0 3.689 3.689 3.695 3.695 0 0 0 3.648-3.127l15.969-9.221A4.197 4.197 0 0 0 50 37.465V17.682a4.207 4.207 0 0 0-2.1-3.626zM29.934 51.47a2.358 2.358 0 0 1-1.651.664h-.074a2.382 2.382 0 1 1 .443-4.733 2.383 2.383 0 0 1 2.014 2.355 2.35 2.35 0 0 1-.732 1.714z"/><path d="M35.745 29.616 7.797 37.028c-.488.13-.953-.784-.68-1.34l.64-1.322c.511-1.055 1.289-1.759 2.208-2.003l27.744-7.354c.488-.131.953.783.68 1.339l-.749 1.555c-.442.902-1.106 1.51-1.895 1.713zM35.95 36.33l-17.303 4.585c-.3.08-.686-.851-.567-1.374l.29-1.225c.226-.982.663-1.595 1.236-1.742l17.178-4.552c.3-.079.686.852.567 1.374l-.335 1.441c-.204.84-.579 1.362-1.067 1.493zM31.472 18.693 14.17 23.278c-.301.08-.687-.851-.568-1.374l.29-1.225c.227-.982.664-1.595 1.237-1.742l17.177-4.552c.301-.079.687.852.568 1.374l-.335 1.441c-.21.84-.579 1.362-1.067 1.493zM40.773 22.075 12.83 29.48c-.488.13-.954-.783-.681-1.339l.64-1.322c.512-1.056 1.289-1.76 2.208-2.003l27.744-7.355c.488-.13.953.783.681 1.34l-.75 1.554c-.442.908-1.106 1.51-1.9 1.72z"/></g><g transform="matrix(2.09849 0 0 2.09849 69.958 1.102)" fill="#ca8a04" clip-path="url(#a)"><path d="m2.08 11.02 1.78 1.66a6.5 6.5 0 0 1 1.32 1.67c.32.593.48 1.19.48 1.79v.26c.013.427-.04.807-.16 1.14h.74c.107-.36.153-.733.14-1.12v-.28c0-.72-.183-1.407-.55-2.06-.367-.653-.877-1.293-1.53-1.92l-1.72-1.62a13.591 13.591 0 0 1-1.35-1.46C.877 8.627.7 8.06.7 7.38v-.12c0-.707.197-1.277.59-1.71.393-.433.943-.65 1.65-.65.507 0 .92.077 1.24.23.32.153.647.383.98.69l.46-.52a4.183 4.183 0 0 0-1.15-.78c-.393-.173-.903-.26-1.53-.26-.813 0-1.503.263-2.07.79S.02 6.307.02 7.24v.16c0 .76.19 1.41.57 1.95.38.54.877 1.097 1.49 1.67zm3.88 7.28h-.82c-.467.68-1.213 1.027-2.24 1.04-.347 0-.66-.04-.94-.12v.7c.28.053.593.08.94.08.72 0 1.34-.147 1.86-.44.52-.293.92-.713 1.2-1.26zm8.36-12.16c0 .08.237.843.71 2.29s.99 3.03 1.55 4.75A892.92 892.92 0 0 0 18.84 20h.86L14.4 4.24h-.16L8.98 20h.82zm-.36 9.38h-.72l1.2 4.48h.72zM31.38 20V4.24h-.66l-3.88 7.22-2.58-4.8-.58.32 3.16 5.86 3.9-7.28V20zm-8.44 0V5.6l.16.3.58-.3-.74-1.36h-.64V20zM42.72 4.26V14.9c0 1.4-.37 2.48-1.11 3.24-.74.76-1.623 1.173-2.65 1.24V20c1.28-.08 2.307-.553 3.08-1.42.773-.867 1.16-2.093 1.16-3.68V4.26zm-4.5 15.14c-1.04-.08-1.907-.5-2.6-1.26-.693-.76-1.04-1.84-1.04-3.24V4.26h-.6V14.9c0 1.6.383 2.83 1.15 3.69.767.86 1.797 1.33 3.09 1.41v-.29zm11.98-4.18a4.837 4.837 0 0 0 1.96-2.03c.453-.873.68-1.863.68-2.97v-.28c0-1.64-.49-3-1.47-4.08s-2.377-1.62-4.19-1.62H45.8v6.34c.227.013.453.02.68.02V4.88h.66c1.64 0 2.88.477 3.72 1.43.84.953 1.26 2.177 1.26 3.67v.22c0 1.48-.42 2.693-1.26 3.64-.84.947-2.08 1.42-3.72 1.42H45.8v.64c.4.013.667.02.8.02h.58c.92 0 1.727-.14 2.42-.42l2.48 4.5h.8zm10.62-9.08c0 .08.237.843.71 2.29s.99 3.03 1.55 4.75A892.92 892.92 0 0 0 65.34 20h.86L60.9 4.24h-.16L55.48 20h.82zm-.36 9.38h-.72l1.2 4.48h.72zM68.8 4.24V20h.52V4.24zM71.92 18h2v2h-2zm4 2c.587 0 1.133-.067 1.64-.2l-.16-.6c-.453.12-.947.18-1.48.18h-1.18V4.92h1.18a5.57 5.57 0 0 1 4.27 1.92c.527.6.94 1.323 1.24 2.17.3.847.45 1.777.45 2.79v.42c0 .747-.1 1.48-.3 2.2-.2.72-.473 1.383-.82 1.99A7.132 7.132 0 0 1 79.54 18c-.467.453-.96.78-1.48.98l.24.58a5.22 5.22 0 0 0 1.64-1.09 7.767 7.767 0 0 0 1.33-1.71c.38-.653.68-1.37.9-2.15.22-.78.33-1.577.33-2.39v-.42c0-1.093-.167-2.097-.5-3.01a7.369 7.369 0 0 0-1.38-2.37 6.28 6.28 0 0 0-2.08-1.56 6.119 6.119 0 0 0-2.62-.56h-1.8V20h1.8zm9.74-5.84V4.8h4.8v-.56H85.1v9.92zm5 5.84v-.54h-5v-4.14h.8v-.54H85.1V20zM101.7 4.24A2759.361 2759.361 0 0 0 98 16.81c-.453 1.553-.68 2.343-.68 2.37l.24.82h.16l4.8-15.76zM97 14.68 94.14 4.24h-.88l3.34 12.28zm8.12 3.32h2v2h-2zm9.2 2c2.213 0 4.1-.78 5.66-2.34.773-.76 1.357-1.58 1.75-2.46.393-.88.59-1.88.59-3 0-2.227-.78-4.107-2.34-5.64-1.56-1.52-3.487-2.287-5.78-2.3a8.19 8.19 0 0 0-3.98 1.06 7.87 7.87 0 0 0-2.9 2.94l.58.32c.653-1.16 1.54-2.06 2.66-2.7a7.294 7.294 0 0 1 3.64-.98c2.133.013 3.907.727 5.32 2.14 1.413 1.387 2.127 3.107 2.14 5.16 0 1.027-.18 1.943-.54 2.75-.36.807-.887 1.563-1.58 2.27-1.427 1.427-3.167 2.14-5.22 2.14-1.28 0-2.44-.273-3.48-.82l-.3.58c1.133.587 2.393.88 3.78.88zm15-4.78a4.837 4.837 0 0 0 1.96-2.03c.453-.873.68-1.863.68-2.97v-.28c0-1.64-.49-3-1.47-4.08s-2.377-1.62-4.19-1.62h-1.38v6.34c.227.013.453.02.68.02V4.88h.66c1.64 0 2.88.477 3.72 1.43.84.953 1.26 2.177 1.26 3.67v.22c0 1.48-.42 2.693-1.26 3.64-.84.947-2.08 1.42-3.72 1.42h-1.34v.64c.4.013.667.02.8.02h.58c.92 0 1.727-.14 2.42-.42l2.48 4.5h.8zM136.4 20c.587 0 1.133-.067 1.64-.2l-.16-.6c-.453.12-.947.18-1.48.18h-1.18V4.92h1.18a5.57 5.57 0 0 1 4.27 1.92c.527.6.94 1.323 1.24 2.17.3.847.45 1.777.45 2.79v.42c0 .747-.1 1.48-.3 2.2-.2.72-.473 1.383-.82 1.99a7.132 7.132 0 0 1-1.22 1.59c-.467.453-.96.78-1.48.98l.24.58a5.22 5.22 0 0 0 1.64-1.09 7.767 7.767 0 0 0 1.33-1.71c.38-.653.68-1.37.9-2.15.22-.78.33-1.577.33-2.39v-.42c0-1.093-.167-2.097-.5-3.01a7.369 7.369 0 0 0-1.38-2.37 6.28 6.28 0 0 0-2.08-1.56 6.119 6.119 0 0 0-2.62-.56h-1.8V20h1.8z"/></g><g transform="matrix(2.09849 0 0 2.09849 131.17 1.794)" fill="#ca8a04" clip-path="url(#b)"><path d="m2.08 11.02 1.78 1.66a6.5 6.5 0 0 1 1.32 1.67c.32.593.48 1.19.48 1.79v.26c.013.427-.04.807-.16 1.14h.74c.107-.36.153-.733.14-1.12v-.28c0-.72-.183-1.407-.55-2.06-.367-.653-.877-1.293-1.53-1.92l-1.72-1.62a13.591 13.591 0 0 1-1.35-1.46C.877 8.627.7 8.06.7 7.38v-.12c0-.707.197-1.277.59-1.71.393-.433.943-.65 1.65-.65.507 0 .92.077 1.24.23.32.153.647.383.98.69l.46-.52a4.183 4.183 0 0 0-1.15-.78c-.393-.173-.903-.26-1.53-.26-.813 0-1.503.263-2.07.79S.02 6.307.02 7.24v.16c0 .76.19 1.41.57 1.95.38.54.877 1.097 1.49 1.67zm3.88 7.28h-.82c-.467.68-1.213 1.027-2.24 1.04-.347 0-.66-.04-.94-.12v.7c.28.053.593.08.94.08.72 0 1.34-.147 1.86-.44.52-.293.92-.713 1.2-1.26zm8.36-12.16c0 .08.237.843.71 2.29s.99 3.03 1.55 4.75A892.92 892.92 0 0 0 18.84 20h.86L14.4 4.24h-.16L8.98 20h.82zm-.36 9.38h-.72l1.2 4.48h.72zM31.38 20V4.24h-.66l-3.88 7.22-2.58-4.8-.58.32 3.16 5.86 3.9-7.28V20zm-8.44 0V5.6l.16.3.58-.3-.74-1.36h-.64V20zM42.72 4.26V14.9c0 1.4-.37 2.48-1.11 3.24-.74.76-1.623 1.173-2.65 1.24V20c1.28-.08 2.307-.553 3.08-1.42.773-.867 1.16-2.093 1.16-3.68V4.26zm-4.5 15.14c-1.04-.08-1.907-.5-2.6-1.26-.693-.76-1.04-1.84-1.04-3.24V4.26h-.6V14.9c0 1.6.383 2.83 1.15 3.69.767.86 1.797 1.33 3.09 1.41v-.29zm11.98-4.18a4.837 4.837 0 0 0 1.96-2.03c.453-.873.68-1.863.68-2.97v-.28c0-1.64-.49-3-1.47-4.08s-2.377-1.62-4.19-1.62H45.8v6.34c.227.013.453.02.68.02V4.88h.66c1.64 0 2.88.477 3.72 1.43.84.953 1.26 2.177 1.26 3.67v.22c0 1.48-.42 2.693-1.26 3.64-.84.947-2.08 1.42-3.72 1.42H45.8v.64c.4.013.667.02.8.02h.58c.92 0 1.727-.14 2.42-.42l2.48 4.5h.8zm10.62-9.08c0 .08.237.843.71 2.29s.99 3.03 1.55 4.75A892.92 892.92 0 0 0 65.34 20h.86L60.9 4.24h-.16L55.48 20h.82zm-.36 9.38h-.72l1.2 4.48h.72zM68.8 4.24V20h.52V4.24zM71.92 18h2v2h-2zm4 2c.587 0 1.133-.067 1.64-.2l-.16-.6c-.453.12-.947.18-1.48.18h-1.18V4.92h1.18a5.57 5.57 0 0 1 4.27 1.92c.527.6.94 1.323 1.24 2.17.3.847.45 1.777.45 2.79v.42c0 .747-.1 1.48-.3 2.2-.2.72-.473 1.383-.82 1.99A7.132 7.132 0 0 1 79.54 18c-.467.453-.96.78-1.48.98l.24.58a5.22 5.22 0 0 0 1.64-1.09 7.767 7.767 0 0 0 1.33-1.71c.38-.653.68-1.37.9-2.15.22-.78.33-1.577.33-2.39v-.42c0-1.093-.167-2.097-.5-3.01a7.369 7.369 0 0 0-1.38-2.37 6.28 6.28 0 0 0-2.08-1.56 6.119 6.119 0 0 0-2.62-.56h-1.8V20h1.8zm9.74-5.84V4.8h4.8v-.56H85.1v9.92zm5 5.84v-.54h-5v-4.14h.8v-.54H85.1V20zM101.7 4.24A2759.361 2759.361 0 0 0 98 16.81c-.453 1.553-.68 2.343-.68 2.37l.24.82h.16l4.8-15.76zM97 14.68 94.14 4.24h-.88l3.34 12.28zm8.12 3.32h2v2h-2zm9.2 2c2.213 0 4.1-.78 5.66-2.34.773-.76 1.357-1.58 1.75-2.46.393-.88.59-1.88.59-3 0-2.227-.78-4.107-2.34-5.64-1.56-1.52-3.487-2.287-5.78-2.3a8.19 8.19 0 0 0-3.98 1.06 7.87 7.87 0 0 0-2.9 2.94l.58.32c.653-1.16 1.54-2.06 2.66-2.7a7.294 7.294 0 0 1 3.64-.98c2.133.013 3.907.727 5.32 2.14 1.413 1.387 2.127 3.107 2.14 5.16 0 1.027-.18 1.943-.54 2.75-.36.807-.887 1.563-1.58 2.27-1.427 1.427-3.167 2.14-5.22 2.14-1.28 0-2.44-.273-3.48-.82l-.3.58c1.133.587 2.393.88 3.78.88zm15-4.78a4.837 4.837 0 0 0 1.96-2.03c.453-.873.68-1.863.68-2.97v-.28c0-1.64-.49-3-1.47-4.08s-2.377-1.62-4.19-1.62h-1.38v6.34c.227.013.453.02.68.02V4.88h.66c1.64 0 2.88.477 3.72 1.43.84.953 1.26 2.177 1.26 3.67v.22c0 1.48-.42 2.693-1.26 3.64-.84.947-2.08 1.42-3.72 1.42h-1.34v.64c.4.013.667.02.8.02h.58c.92 0 1.727-.14 2.42-.42l2.48 4.5h.8zM136.4 20c.587 0 1.133-.067 1.64-.2l-.16-.6c-.453.12-.947.18-1.48.18h-1.18V4.92h1.18a5.57 5.57 0 0 1 4.27 1.92c.527.6.94 1.323 1.24 2.17.3.847.45 1.777.45 2.79v.42c0 .747-.1 1.48-.3 2.2-.2.72-.473 1.383-.82 1.99a7.132 7.132 0 0 1-1.22 1.59c-.467.453-.96.78-1.48.98l.24.58a5.22 5.22 0 0 0 1.64-1.09 7.767 7.767 0 0 0 1.33-1.71c.38-.653.68-1.37.9-2.15.22-.78.33-1.577.33-2.39v-.42c0-1.093-.167-2.097-.5-3.01a7.369 7.369 0 0 0-1.38-2.37 6.28 6.28 0 0 0-2.08-1.56 6.119 6.119 0 0 0-2.62-.56h-1.8V20h1.8z"/></g><g transform="matrix(2.09849 0 0 2.09849 -5.427 1.2)" fill="#ca8a04" clip-path="url(#c)"><path d="m2.08 11.02 1.78 1.66a6.5 6.5 0 0 1 1.32 1.67c.32.593.48 1.19.48 1.79v.26c.013.427-.04.807-.16 1.14h.74c.107-.36.153-.733.14-1.12v-.28c0-.72-.183-1.407-.55-2.06-.367-.653-.877-1.293-1.53-1.92l-1.72-1.62a13.591 13.591 0 0 1-1.35-1.46C.877 8.627.7 8.06.7 7.38v-.12c0-.707.197-1.277.59-1.71.393-.433.943-.65 1.65-.65.507 0 .92.077 1.24.23.32.153.647.383.98.69l.46-.52a4.183 4.183 0 0 0-1.15-.78c-.393-.173-.903-.26-1.53-.26-.813 0-1.503.263-2.07.79S.02 6.307.02 7.24v.16c0 .76.19 1.41.57 1.95.38.54.877 1.097 1.49 1.67zm3.88 7.28h-.82c-.467.68-1.213 1.027-2.24 1.04-.347 0-.66-.04-.94-.12v.7c.28.053.593.08.94.08.72 0 1.34-.147 1.86-.44.52-.293.92-.713 1.2-1.26zm8.36-12.16c0 .08.237.843.71 2.29s.99 3.03 1.55 4.75A892.92 892.92 0 0 0 18.84 20h.86L14.4 4.24h-.16L8.98 20h.82zm-.36 9.38h-.72l1.2 4.48h.72zM31.38 20V4.24h-.66l-3.88 7.22-2.58-4.8-.58.32 3.16 5.86 3.9-7.28V20zm-8.44 0V5.6l.16.3.58-.3-.74-1.36h-.64V20zM42.72 4.26V14.9c0 1.4-.37 2.48-1.11 3.24-.74.76-1.623 1.173-2.65 1.24V20c1.28-.08 2.307-.553 3.08-1.42.773-.867 1.16-2.093 1.16-3.68V4.26zm-4.5 15.14c-1.04-.08-1.907-.5-2.6-1.26-.693-.76-1.04-1.84-1.04-3.24V4.26h-.6V14.9c0 1.6.383 2.83 1.15 3.69.767.86 1.797 1.33 3.09 1.41v-.29zm11.98-4.18a4.837 4.837 0 0 0 1.96-2.03c.453-.873.68-1.863.68-2.97v-.28c0-1.64-.49-3-1.47-4.08s-2.377-1.62-4.19-1.62H45.8v6.34c.227.013.453.02.68.02V4.88h.66c1.64 0 2.88.477 3.72 1.43.84.953 1.26 2.177 1.26 3.67v.22c0 1.48-.42 2.693-1.26 3.64-.84.947-2.08 1.42-3.72 1.42H45.8v.64c.4.013.667.02.8.02h.58c.92 0 1.727-.14 2.42-.42l2.48 4.5h.8zm10.62-9.08c0 .08.237.843.71 2.29s.99 3.03 1.55 4.75A892.92 892.92 0 0 0 65.34 20h.86L60.9 4.24h-.16L55.48 20h.82zm-.36 9.38h-.72l1.2 4.48h.72zM68.8 4.24V20h.52V4.24zM71.92 18h2v2h-2zm4 2c.587 0 1.133-.067 1.64-.2l-.16-.6c-.453.12-.947.18-1.48.18h-1.18V4.92h1.18a5.57 5.57 0 0 1 4.27 1.92c.527.6.94 1.323 1.24 2.17.3.847.45 1.777.45 2.79v.42c0 .747-.1 1.48-.3 2.2-.2.72-.473 1.383-.82 1.99A7.132 7.132 0 0 1 79.54 18c-.467.453-.96.78-1.48.98l.24.58a5.22 5.22 0 0 0 1.64-1.09 7.767 7.767 0 0 0 1.33-1.71c.38-.653.68-1.37.9-2.15.22-.78.33-1.577.33-2.39v-.42c0-1.093-.167-2.097-.5-3.01a7.369 7.369 0 0 0-1.38-2.37 6.28 6.28 0 0 0-2.08-1.56 6.119 6.119 0 0 0-2.62-.56h-1.8V20h1.8zm9.74-5.84V4.8h4.8v-.56H85.1v9.92zm5 5.84v-.54h-5v-4.14h.8v-.54H85.1V20zM101.7 4.24A2759.361 2759.361 0 0 0 98 16.81c-.453 1.553-.68 2.343-.68 2.37l.24.82h.16l4.8-15.76zM97 14.68 94.14 4.24h-.88l3.34 12.28zm8.12 3.32h2v2h-2zm9.2 2c2.213 0 4.1-.78 5.66-2.34.773-.76 1.357-1.58 1.75-2.46.393-.88.59-1.88.59-3 0-2.227-.78-4.107-2.34-5.64-1.56-1.52-3.487-2.287-5.78-2.3a8.19 8.19 0 0 0-3.98 1.06 7.87 7.87 0 0 0-2.9 2.94l.58.32c.653-1.16 1.54-2.06 2.66-2.7a7.294 7.294 0 0 1 3.64-.98c2.133.013 3.907.727 5.32 2.14 1.413 1.387 2.127 3.107 2.14 5.16 0 1.027-.18 1.943-.54 2.75-.36.807-.887 1.563-1.58 2.27-1.427 1.427-3.167 2.14-5.22 2.14-1.28 0-2.44-.273-3.48-.82l-.3.58c1.133.587 2.393.88 3.78.88zm15-4.78a4.837 4.837 0 0 0 1.96-2.03c.453-.873.68-1.863.68-2.97v-.28c0-1.64-.49-3-1.47-4.08s-2.377-1.62-4.19-1.62h-1.38v6.34c.227.013.453.02.68.02V4.88h.66c1.64 0 2.88.477 3.72 1.43.84.953 1.26 2.177 1.26 3.67v.22c0 1.48-.42 2.693-1.26 3.64-.84.947-2.08 1.42-3.72 1.42h-1.34v.64c.4.013.667.02.8.02h.58c.92 0 1.727-.14 2.42-.42l2.48 4.5h.8zM136.4 20c.587 0 1.133-.067 1.64-.2l-.16-.6c-.453.12-.947.18-1.48.18h-1.18V4.92h1.18a5.57 5.57 0 0 1 4.27 1.92c.527.6.94 1.323 1.24 2.17.3.847.45 1.777.45 2.79v.42c0 .747-.1 1.48-.3 2.2-.2.72-.473 1.383-.82 1.99a7.132 7.132 0 0 1-1.22 1.59c-.467.453-.96.78-1.48.98l.24.58a5.22 5.22 0 0 0 1.64-1.09 7.767 7.767 0 0 0 1.33-1.71c.38-.653.68-1.37.9-2.15.22-.78.33-1.577.33-2.39v-.42c0-1.093-.167-2.097-.5-3.01a7.369 7.369 0 0 0-1.38-2.37 6.28 6.28 0 0 0-2.08-1.56 6.119 6.119 0 0 0-2.62-.56h-1.8V20h1.8z"/></g></svg>